<mxfile host="app.diagrams.net" modified="2023-08-08T11:54:25.830Z" agent="Mozilla/5.0 (Windows NT 10.0; Win64; x64) AppleWebKit/537.36 (KHTML, like Gecko) Chrome/115.0.0.0 Safari/537.36" etag="hkafErIB3xzmd_3jrlF_" version="21.6.6" type="github">
  <diagram id="6a731a19-8d31-9384-78a2-239565b7b9f0" name="Page-1">
    <mxGraphModel dx="1370" dy="1625" grid="1" gridSize="10" guides="1" tooltips="1" connect="1" arrows="1" fold="1" page="1" pageScale="1" pageWidth="1169" pageHeight="827" background="none" math="0" shadow="0">
      <root>
        <mxCell id="0" />
        <mxCell id="1" parent="0" />
        <mxCell id="KO6-p1NLh0tAHtOQLSAl-66" style="edgeStyle=orthogonalEdgeStyle;rounded=0;orthogonalLoop=1;jettySize=auto;html=1;" edge="1" parent="1">
          <mxGeometry relative="1" as="geometry">
            <mxPoint x="359.31" y="-205" as="sourcePoint" />
            <mxPoint x="359.31" y="-65" as="targetPoint" />
            <Array as="points">
              <mxPoint x="359.31" y="-81" />
            </Array>
          </mxGeometry>
        </mxCell>
        <mxCell id="KO6-p1NLh0tAHtOQLSAl-86" style="edgeStyle=orthogonalEdgeStyle;rounded=0;orthogonalLoop=1;jettySize=auto;html=1;" edge="1" parent="1" source="2" target="3">
          <mxGeometry relative="1" as="geometry" />
        </mxCell>
        <mxCell id="KO6-p1NLh0tAHtOQLSAl-87" style="edgeStyle=orthogonalEdgeStyle;rounded=0;orthogonalLoop=1;jettySize=auto;html=1;entryX=0.532;entryY=0.026;entryDx=0;entryDy=0;entryPerimeter=0;" edge="1" parent="1" source="2" target="KO6-p1NLh0tAHtOQLSAl-65">
          <mxGeometry relative="1" as="geometry" />
        </mxCell>
        <mxCell id="2" value="申请" style="shape=mxgraph.flowchart.terminator;strokeWidth=2;gradientDirection=north;fontStyle=0;html=1;fillColor=#fad7ac;strokeColor=#b46504;" parent="1" vertex="1">
          <mxGeometry x="295" y="-220" width="120" height="30" as="geometry" />
        </mxCell>
        <mxCell id="KO6-p1NLh0tAHtOQLSAl-81" value="" style="edgeStyle=orthogonalEdgeStyle;rounded=0;orthogonalLoop=1;jettySize=auto;html=1;exitX=0.905;exitY=0.5;exitDx=0;exitDy=0;exitPerimeter=0;" edge="1" parent="1" source="3" target="KO6-p1NLh0tAHtOQLSAl-64">
          <mxGeometry relative="1" as="geometry" />
        </mxCell>
        <mxCell id="3" value="转人工" style="shape=mxgraph.flowchart.data;strokeWidth=2;gradientDirection=north;fontStyle=0;html=1;fillColor=#d0cee2;strokeColor=#56517e;" parent="1" vertex="1">
          <mxGeometry x="76" y="-65" width="159" height="80" as="geometry" />
        </mxCell>
        <mxCell id="45" value="" style="edgeStyle=elbowEdgeStyle;elbow=horizontal;exitX=1;exitY=0.5;exitPerimeter=0;entryX=0.905;entryY=0.5;entryPerimeter=0;fontStyle=1;strokeColor=#003366;strokeWidth=1;html=1;" parent="1" target="34" edge="1">
          <mxGeometry width="100" height="100" as="geometry">
            <mxPoint x="380.5" y="1119.25" as="sourcePoint" />
            <mxPoint x="100" as="targetPoint" />
            <Array as="points">
              <mxPoint x="950" y="1320" />
            </Array>
          </mxGeometry>
        </mxCell>
        <mxCell id="KO6-p1NLh0tAHtOQLSAl-64" value="失败" style="shape=mxgraph.flowchart.document;strokeWidth=2;gradientColor=#b3b3b3;gradientDirection=north;fontStyle=0;html=1;fillColor=#f5f5f5;strokeColor=#666666;" vertex="1" parent="1">
          <mxGeometry x="295" y="-60.5" width="140" height="70" as="geometry" />
        </mxCell>
        <mxCell id="KO6-p1NLh0tAHtOQLSAl-93" style="edgeStyle=orthogonalEdgeStyle;rounded=0;orthogonalLoop=1;jettySize=auto;html=1;" edge="1" parent="1" source="KO6-p1NLh0tAHtOQLSAl-65" target="KO6-p1NLh0tAHtOQLSAl-74">
          <mxGeometry relative="1" as="geometry">
            <mxPoint x="430.0344827586207" y="100" as="targetPoint" />
            <Array as="points">
              <mxPoint x="575" y="130" />
              <mxPoint x="430" y="130" />
              <mxPoint x="430" y="131" />
            </Array>
          </mxGeometry>
        </mxCell>
        <mxCell id="KO6-p1NLh0tAHtOQLSAl-65" value="初审" style="shape=mxgraph.flowchart.paper_tape;strokeWidth=2;gradientDirection=north;fontStyle=0;html=1;fillColor=#b1ddf0;strokeColor=#10739e;" vertex="1" parent="1">
          <mxGeometry x="500" y="-66" width="150" height="81" as="geometry" />
        </mxCell>
        <mxCell id="KO6-p1NLh0tAHtOQLSAl-82" value="" style="edgeStyle=orthogonalEdgeStyle;rounded=0;orthogonalLoop=1;jettySize=auto;html=1;" edge="1" parent="1" source="KO6-p1NLh0tAHtOQLSAl-74" target="KO6-p1NLh0tAHtOQLSAl-64">
          <mxGeometry relative="1" as="geometry" />
        </mxCell>
        <mxCell id="KO6-p1NLh0tAHtOQLSAl-99" value="" style="edgeStyle=orthogonalEdgeStyle;rounded=0;orthogonalLoop=1;jettySize=auto;html=1;" edge="1" parent="1" source="KO6-p1NLh0tAHtOQLSAl-74" target="KO6-p1NLh0tAHtOQLSAl-98">
          <mxGeometry relative="1" as="geometry" />
        </mxCell>
        <mxCell id="KO6-p1NLh0tAHtOQLSAl-74" value="终审" style="shape=hexagon;perimeter=hexagonPerimeter2;whiteSpace=wrap;html=1;fixedSize=1;strokeWidth=2;gradientDirection=north;fontStyle=0;fillColor=#b0e3e6;strokeColor=#0e8088;" vertex="1" parent="1">
          <mxGeometry x="305" y="91" width="120" height="80" as="geometry" />
        </mxCell>
        <mxCell id="KO6-p1NLh0tAHtOQLSAl-95" style="edgeStyle=orthogonalEdgeStyle;rounded=0;orthogonalLoop=1;jettySize=auto;html=1;entryX=-0.014;entryY=0.405;entryDx=0;entryDy=0;entryPerimeter=0;" edge="1" parent="1">
          <mxGeometry relative="1" as="geometry">
            <mxPoint x="158" y="20" as="sourcePoint" />
            <mxPoint x="304.99999999999994" y="133.4000000000001" as="targetPoint" />
            <Array as="points">
              <mxPoint x="158" y="133" />
              <mxPoint x="302" y="133" />
            </Array>
          </mxGeometry>
        </mxCell>
        <mxCell id="KO6-p1NLh0tAHtOQLSAl-101" value="" style="edgeStyle=orthogonalEdgeStyle;rounded=0;orthogonalLoop=1;jettySize=auto;html=1;" edge="1" parent="1" source="KO6-p1NLh0tAHtOQLSAl-98" target="KO6-p1NLh0tAHtOQLSAl-100">
          <mxGeometry relative="1" as="geometry" />
        </mxCell>
        <mxCell id="KO6-p1NLh0tAHtOQLSAl-98" value="激活" style="rhombus;whiteSpace=wrap;html=1;strokeWidth=2;gradientColor=#ea6b66;gradientDirection=north;fontStyle=0;fillColor=#f8cecc;strokeColor=#b85450;" vertex="1" parent="1">
          <mxGeometry x="325" y="230" width="80" height="80" as="geometry" />
        </mxCell>
        <mxCell id="KO6-p1NLh0tAHtOQLSAl-100" value="首刷" style="shape=process;whiteSpace=wrap;html=1;backgroundOutline=1;strokeWidth=2;gradientDirection=north;fontStyle=0;fillColor=#ffff88;strokeColor=#36393d;" vertex="1" parent="1">
          <mxGeometry x="305" y="370" width="120" height="60" as="geometry" />
        </mxCell>
      </root>
    </mxGraphModel>
  </diagram>
</mxfile>
